<?xml version="1.0" encoding="UTF-8"?>
<svg id="Layer_2" data-name="Layer 2" xmlns="http://www.w3.org/2000/svg" viewBox="0 0 179.71 153.27">
  <defs>
    <style>
      .cls-1 {
        fill: #f9f7f7;
      }
    </style>
  </defs>
  <g id="Layer_1-2" data-name="Layer 1">
    <path class="cls-1" d="M16.37,43.45L2.05,8.58v44.59H.85V5.6l-.85-2.06h2.98l16.02,38.99c.36.85.57,1.13.99,1.13.36,0,.71-.43.92-.92L37,3.54h2.97v49.62h-2.97V6.45l-14.96,36.51c-.78,1.99-1.63,3.9-2.69,3.9-1.35,0-2.13-1.63-2.98-3.4Z"/>
    <path class="cls-1" d="M62.33,14.96c10.35,0,17.3,7.8,17.3,19.56s-6.95,19.56-17.3,19.56-17.37-7.8-17.37-19.56,6.95-19.56,17.37-19.56ZM62.33,52.88c9.29,0,14.11-7.02,14.11-18.36s-4.82-18.36-14.11-18.36-14.18,7.02-14.18,18.36,4.82,18.36,14.18,18.36ZM63.18,0h0c2.03,1.76,1.98,4.95-.14,6.61-1.6,1.25-3.33,2.34-4.43,2.25-.56-.05-.95-.64-.86-1.2.43-2.57,5.43-7.66,5.43-7.66Z"/>
    <path class="cls-1" d="M86.38,15.95v4.46c1.99-2.69,5.32-5.67,10.99-5.67,5.32,0,10.49,2.34,10.49,11.48v26.94h-2.98v-27.72c0-4.96-2.34-9.5-7.94-9.5-6.74,0-10.56,5.46-10.56,8.5v28.71h-2.98V15.95h2.98Z"/>
    <path class="cls-1" d="M114.68,8.44c.85,0,1.39.51,1.39,1.43,0,.85-.53,1.55-1.39,1.55-.92,0-1.49-.64-1.49-1.49,0-.92.57-1.49,1.49-1.49ZM113.19,15.95h2.98v37.21h-2.98V15.95Z"/>
    <path class="cls-1" d="M138.5,54.08c-10.42,0-17.37-7.8-17.37-19.56s6.95-19.56,17.37-19.56c5.74,0,10.42,2.41,13.47,6.52l-3.26,3.75c-1.42-4.4-4.75-9.07-10.21-9.07-9.36,0-14.18,7.02-14.18,18.36s6.59,17.65,15.53,17.65c4.25,0,7.3-1.63,10.07-4.54l.42.57c-2.76,4.04-7.09,5.88-11.84,5.88Z"/>
    <path class="cls-1" d="M164.32,54.02c-3.26,0-9.86-.85-9.86-9.36,0-13.33,21.98-12.48,21.98-21.62,0-2.91-2.34-7.09-7.94-7.09-6.74,0-8.65,6.1-8.08,9.99l-3.76-3.47c1.56-2.91,5.1-7.73,12.27-7.73,5.32,0,10.49,2.48,10.49,8.58,0,9.5-21.76,6.95-21.76,21.55,0,5.17,3.19,7.3,7.09,7.3,7.51,0,10.85-9.29,11.98-17.3l2.98-.78v19.07h-2.98v-12.12c-2.27,8.08-6.31,12.97-12.4,12.97Z"/>
    <g>
      <path class="cls-1" d="M46.12,118.18c-13.68,0-22.83-10.28-22.83-25.73s9.15-25.73,22.83-25.73c6.52,0,10.91,1.21,14.39,4.96l.07,5.74c-3.76-6.38-8.29-9.5-14.46-9.5-12.27,0-19.64,9.64-19.64,24.52s7.37,24.53,19.64,24.53c6.66,0,11.62-3.76,16.16-11.84l.07,6.24c-3.97,4.33-9.57,6.8-16.23,6.8Z"/>
      <path class="cls-1" d="M93.49,127.61c2.55,0,2.62-7.23,2.62-10.35v-49.62h2.98v49.62c0,3.83.14,11.56-5.53,11.56s-5.39-8.37-5.39-11.56v-12.12c-2.27,8.08-6.31,12.97-12.4,12.97-3.26,0-9.86-.85-9.86-9.36,0-13.33,21.98-12.48,21.98-21.62,0-2.91-2.34-7.09-7.94-7.09-6.74,0-8.65,6.1-8.08,9.99l-3.76-3.47c1.56-2.91,5.1-7.73,12.27-7.73,5.32,0,10.49,2.48,10.49,8.58,0,9.5-21.76,6.95-21.76,21.55,0,5.17,3.19,7.3,7.09,7.3,7.51,0,10.85-9.29,11.98-17.3l2.98-.78v19.07c0,2.05-.21,10.35,2.34,10.35Z"/>
      <path class="cls-1" d="M107.76,67.64v49.62h-2.98v-49.62h2.98Z"/>
      <path class="cls-1" d="M130.09,118.18c-10.42,0-17.37-7.8-17.37-19.56s6.95-19.56,17.37-19.56c7.3,0,13.97,4.04,13.97,11.48,0,3.83-1.92,10.14-14.89,10.14-7.23,0-11.27-1.13-13.26-2.55v.5c0,11.34,6.59,17.65,15.53,17.65,4.25,0,7.3-1.63,10.07-4.54l.42.57c-2.76,4.04-7.09,5.88-11.84,5.88ZM129.1,99.47c6.67,0,11.77-.85,11.77-8.44s-5.32-10.78-10.78-10.78c-8.22,0-12.97,5.39-13.96,14.39.07,2.91,4.96,4.82,12.97,4.82Z"/>
    </g>
    <g>
      <path class="cls-1" d="M63.69,149.42h-.97l-.1-.97c-.8.67-1.71,1.18-3,1.18-1.96,0-3.29-1.26-3.29-4.45,0-3.39,1.71-4.64,3.68-4.64,1.02,0,1.89.34,2.54.82v-4.81h1.14v12.88ZM62.55,142.41c-.43-.32-1.38-.9-2.54-.9-1.86,0-2.52,1.45-2.52,3.72,0,2.39.73,3.46,2.41,3.46,1.06,0,2.06-.65,2.66-1.3v-4.98Z"/>
      <path class="cls-1" d="M66.08,145.07c0-3.19,1.84-4.54,4.04-4.54,2.39,0,3.36,1.62,3.36,3.7-.02.34-.03.7-.08,1.06h-6.11c.07,2.61,1.28,3.31,2.8,3.31,1.36,0,1.93-.56,2.2-1.66l1.08.21c-.38,1.72-1.76,2.47-3.36,2.47-3.04,0-3.92-2.15-3.92-4.56ZM72.29,144.37c.03-1.79-.65-2.85-2.27-2.85-1.33,0-2.63.82-2.71,2.85h4.98Z"/>
      <path class="cls-1" d="M81.67,143.16l-1.13.14c-.21-1.14-.53-1.79-1.96-1.79-1.52,0-1.88.67-1.88,1.42,0,1.02.77,1.26,2.08,1.59,1.6.39,3.04.73,3.04,2.63,0,1.5-1.13,2.49-3.22,2.49-1.91,0-3.12-.73-3.38-2.64l1.09-.19c.24,1.04.65,1.84,2.34,1.84,1.14,0,2.01-.34,2.01-1.45,0-1.02-.72-1.23-1.98-1.55-1.45-.38-3.16-.6-3.16-2.59,0-1.69,1.45-2.51,3.09-2.51,2.1,0,2.85,1.04,3.05,2.63Z"/>
      <path class="cls-1" d="M84.77,138.58c-.58,0-.92-.32-.92-.9s.34-.9.92-.9.92.32.92.9-.34.9-.92.9ZM85.31,149.42h-1.14v-8.72h1.14v8.72Z"/>
      <path class="cls-1" d="M93.94,141.45c.22-.53.65-1.01,1.26-1.01.26,0,.5.03.73.12v.92c-.55-.02-1.3.12-1.72.26.39.44.61,1.19.61,1.89,0,1.98-1.54,3.1-3.45,3.1-.67,0-1.21-.08-1.62-.24-.29.26-.65.6-.65,1.01s.2.65,1.26.7l2.46.14c1.77.1,2.78.56,2.78,2.25,0,2.13-2.37,2.68-4.42,2.68-3.28,0-3.8-1.25-3.8-2.2,0-1.07.8-1.72,1.42-2.15-.51-.15-.85-.53-.85-1.11,0-.7.51-1.16,1.07-1.6-.85-.46-1.31-1.38-1.31-2.49,0-1.94,1.43-3.19,3.6-3.19,1.11,0,2.03.24,2.63.92ZM92.82,149.33l-3.16-.17c-.65.46-1.13,1.01-1.13,1.71,0,.75.48,1.43,2.8,1.43,2.12,0,3.1-.65,3.1-1.74,0-.65-.32-1.16-1.62-1.23ZM91.35,141.48c-1.36,0-2.47.63-2.47,2.15,0,1.26.72,2.17,2.44,2.17,1.43,0,2.35-.82,2.35-2.13,0-1.48-.85-2.18-2.32-2.18Z"/>
      <path class="cls-1" d="M104.65,149.42h-1.14v-5.77c0-1.33-.46-2.12-1.81-2.12-1.14,0-2.37.77-2.9,1.25v6.64h-1.14v-8.72h1.01l.07,1.09c.94-.7,2.06-1.26,3.28-1.26,1.86,0,2.64,1.04,2.64,3v5.89Z"/>
      <path class="cls-1" d="M106.99,145.07c0-3.19,1.84-4.54,4.04-4.54,2.39,0,3.36,1.62,3.36,3.7-.02.34-.03.7-.08,1.06h-6.11c.07,2.61,1.28,3.31,2.8,3.31,1.36,0,1.93-.56,2.2-1.66l1.08.21c-.38,1.72-1.76,2.47-3.36,2.47-3.04,0-3.92-2.15-3.92-4.56ZM113.19,144.37c.03-1.79-.65-2.85-2.27-2.85-1.33,0-2.63.82-2.71,2.85h4.98Z"/>
      <path class="cls-1" d="M121.18,141.72c-1.08-.19-2.42.31-3.14,1.01v6.69h-1.14v-8.72h.94l.1,1.21c.84-1.13,1.77-1.4,2.81-1.4.17,0,.24,0,.43.02v1.19Z"/>
    </g>
  </g>
</svg>